<?xml version="1.0" encoding="UTF-8" standalone="no"?>
<svg
   viewBox="0 0 1122.5196 793.70083"
   width="1122.5197"
   height="793.70081"
   version="1.1"
   id="svg795"
   sodipodi:docname="text.svg"
   inkscape:version="1.2.2 (732a01da63, 2022-12-09)"
   xmlns:inkscape="http://www.inkscape.org/namespaces/inkscape"
   xmlns:sodipodi="http://sodipodi.sourceforge.net/DTD/sodipodi-0.dtd"
   xmlns="http://www.w3.org/2000/svg"
   xmlns:svg="http://www.w3.org/2000/svg">
  <sodipodi:namedview
     id="namedview797"
     pagecolor="#ffffff"
     bordercolor="#000000"
     borderopacity="0.25"
     inkscape:showpageshadow="2"
     inkscape:pageopacity="0.0"
     inkscape:pagecheckerboard="0"
     inkscape:deskcolor="#d1d1d1"
     showgrid="false"
     inkscape:zoom="1.8761364"
     inkscape:cx="501.29616"
     inkscape:cy="389.0975"
     inkscape:window-width="1920"
     inkscape:window-height="1017"
     inkscape:window-x="1072"
     inkscape:window-y="693"
     inkscape:window-maximized="1"
     inkscape:current-layer="g793" />
  <desc
     id="desc761">Sketch1.dxf - scale = 1.000000, origin = (0.000000, 0.000000), method = manual</desc>
  <defs
     id="defs775">
    <marker
       id="DistanceX"
       orient="auto"
       refX="0"
       refY="0"
       style="overflow:visible">
      <path
         d="M 3,-3 -3,3 M 0,-5 V 5"
         style="stroke:#000000;stroke-width:0.5"
         id="path763" />
    </marker>
    <pattern
       id="Hatch"
       patternUnits="userSpaceOnUse"
       width="8"
       height="8"
       x="0"
       y="0">
      <path
         d="M8 4 l-4,4"
         stroke="#000000"
         stroke-width="0.25"
         linecap="square"
         id="path766" />
      <path
         d="M6 2 l-4,4"
         stroke="#000000"
         stroke-width="0.25"
         linecap="square"
         id="path768" />
      <path
         d="M4 0 l-4,4"
         stroke="#000000"
         stroke-width="0.25"
         linecap="square"
         id="path770" />
    </pattern>
    <symbol
       id="*MODEL_SPACE" />
    <symbol
       id="*PAPER_SPACE" />
    <marker
       style="overflow:visible"
       id="marker5645-7"
       refX="0"
       refY="0"
       orient="auto-start-reverse"
       inkscape:stockid="TriangleStart"
       markerWidth="5.3244081"
       markerHeight="6.155385"
       viewBox="0 0 5.3244081 6.1553851"
       inkscape:isstock="true"
       inkscape:collect="always"
       preserveAspectRatio="xMidYMid">
      <path
         transform="scale(0.5)"
         style="fill:context-stroke;fill-rule:evenodd;stroke:context-stroke;stroke-width:1pt"
         d="M 5.77,0 -2.88,5 V -5 Z"
         id="path5643-2" />
    </marker>
    <marker
       style="overflow:visible"
       id="marker5645-7-6"
       refX="0"
       refY="0"
       orient="auto-start-reverse"
       inkscape:stockid="TriangleStart"
       markerWidth="5.3244081"
       markerHeight="6.155385"
       viewBox="0 0 5.3244081 6.1553851"
       inkscape:isstock="true"
       inkscape:collect="always"
       preserveAspectRatio="xMidYMid">
      <path
         transform="scale(0.5)"
         style="fill:context-stroke;fill-rule:evenodd;stroke:context-stroke;stroke-width:1pt"
         d="M 5.77,0 -2.88,5 V -5 Z"
         id="path5643-2-4" />
    </marker>
    <marker
       style="overflow:visible"
       id="marker5645-7-6-7"
       refX="0"
       refY="0"
       orient="auto-start-reverse"
       inkscape:stockid="TriangleStart"
       markerWidth="5.3244081"
       markerHeight="6.155385"
       viewBox="0 0 5.3244081 6.1553851"
       inkscape:isstock="true"
       inkscape:collect="always"
       preserveAspectRatio="xMidYMid">
      <path
         transform="scale(0.5)"
         style="fill:context-stroke;fill-rule:evenodd;stroke:context-stroke;stroke-width:1pt"
         d="M 5.77,0 -2.88,5 V -5 Z"
         id="path5643-2-4-3" />
    </marker>
    <marker
       style="overflow:visible"
       id="marker5645-7-6-7-4"
       refX="0"
       refY="0"
       orient="auto-start-reverse"
       inkscape:stockid="TriangleStart"
       markerWidth="5.3244081"
       markerHeight="6.155385"
       viewBox="0 0 5.3244081 6.1553851"
       inkscape:isstock="true"
       inkscape:collect="always"
       preserveAspectRatio="xMidYMid">
      <path
         transform="scale(0.5)"
         style="fill:context-stroke;fill-rule:evenodd;stroke:context-stroke;stroke-width:1pt"
         d="M 5.77,0 -2.88,5 V -5 Z"
         id="path5643-2-4-3-4" />
    </marker>
  </defs>
  <g
     inkscape:groupmode="layer"
     inkscape:label="0"
     id="g793">
    <path
       d="m 378.7318,511.40573 v -219.2126 a 7.559055,7.559055 0 0 1 7.55905,-7.55906 h 219.2126 a 7.559055,7.559055 0 0 1 7.55905,7.55906 v 219.2126 a 7.559055,7.559055 0 0 1 -7.55905,7.55905 h -219.2126 a 7.559055,7.559055 0 0 1 -7.55905,-7.55905 z"
       style="fill:#005f98;fill-opacity:1;stroke:none"
       id="path791" />
    <path
       d="m 460.93652,464.16163 a 15.11811,15.11811 0 0 0 -30.23622,0 15.11811,15.11811 0 0 0 30.23622,0 z"
       style="fill:#005f98;stroke:#ffffff;stroke-opacity:1;fill-opacity:1"
       id="path777" />
    <path
       d="m 561.094,464.16163 a 15.118111,15.118111 0 0 0 -30.23622,0 15.118111,15.118111 0 0 0 30.23622,0 z"
       style="fill:#005f98;stroke:#ffffff;stroke-opacity:1;fill-opacity:1"
       id="path779" />
    <path
       d="m 460.93652,328.09864 a 5.669291,5.669291 0 0 0 -11.33858,0 5.669291,5.669291 0 0 0 11.33858,0 z"
       style="fill:#ffffff;stroke:none;stroke-opacity:1"
       id="path781" />
    <path
       d="m 439.20424,354.55533 h 113.38582 a 3.779528,3.779528 0 0 1 3.77953,3.77953 v 56.69291 a 3.779528,3.779528 0 0 1 -3.77953,3.77953 H 439.20424 a 3.779528,3.779528 0 0 1 -3.77953,-3.77953 v -56.69291 a 3.779528,3.779528 0 0 1 3.77953,-3.77953 z"
       style="fill:#ffffff;stroke:none;stroke-opacity:1"
       id="path783" />
    <path
       d="m 487.39321,328.09864 a 5.669291,5.669291 0 0 0 -11.33858,0 5.669291,5.669291 0 0 0 11.33858,0 z"
       style="fill:#ffffff;stroke:none;stroke-opacity:1"
       id="path785" />
    <path
       d="m 513.84991,328.09864 a 5.669295,5.669295 0 0 0 -11.33859,0 5.669295,5.669295 0 0 0 11.33859,0 z"
       style="fill:#ffffff;stroke:none;stroke-opacity:1"
       id="path787" />
    <path
       d="m 540.3066,328.09864 a 5.6692915,5.6692915 0 0 0 -11.33858,0 5.6692915,5.6692915 0 0 0 11.33858,0 z"
       style="fill:#ffffff;stroke:none;stroke-opacity:1"
       id="path789" />
    <circle
       cx="481.6626"
       cy="315.00275"
       r="1.9378972"
       id="circle754"
       style="stroke-width:0.0467031;stroke:none;stroke-opacity:1;fill:#ffffff" />
    <path
       d="m 481.66262,309.83494 c -1.66534,0 -3.23825,0.81007 -4.20748,2.16693 -0.27653,0.38708 -0.18686,0.925 0.20017,1.20149 0.15174,0.10839 0.32664,0.16056 0.49991,0.16056 0.26873,0 0.53349,-0.12544 0.70153,-0.36073 0.64665,-0.90525 1.69555,-1.44565 2.80582,-1.44565 1.11037,0 2.15923,0.5404 2.80578,1.4456 0.27644,0.38698 0.81436,0.47679 1.20149,0.20026 0.38707,-0.27648 0.47674,-0.8144 0.20026,-1.20148 -0.96914,-1.35696 -2.54205,-2.16698 -4.20748,-2.16698 z"
       id="path756"
       style="stroke-width:0.0467031;stroke:none;stroke-opacity:1;fill:#ffffff" />
    <path
       d="m 481.66262,306.60515 c -2.37896,0 -4.65602,1.01574 -6.24747,2.78677 -0.31791,0.35382 -0.28886,0.89838 0.065,1.21633 0.16454,0.14787 0.37031,0.22068 0.57538,0.22068 0.2359,-5e-5 0.47086,-0.0964 0.64091,-0.28564 1.26523,-1.408 3.07535,-2.21555 4.96622,-2.21555 1.89086,0 3.70103,0.80755 4.96631,2.2155 0.31795,0.35383 0.86251,0.38288 1.21629,0.065 0.35382,-0.31796 0.38287,-0.86251 0.065,-1.21629 -1.59155,-1.77107 -3.8687,-2.78677 -6.24761,-2.78677 z"
       id="path758"
       style="stroke-width:0.0467031;stroke:none;stroke-opacity:1;fill:#ffffff" />
    <path
       d="m 489.96012,306.85828 c -2.2048,-2.24605 -5.15158,-3.48298 -8.2975,-3.48298 -3.14578,0 -6.09256,1.23693 -8.29745,3.48307 -0.33323,0.33949 -0.32819,0.88474 0.0112,1.21797 0.16767,0.16458 0.38553,0.24669 0.60331,0.24664 0.22306,0 0.44606,-0.0862 0.61466,-0.25789 1.8784,-1.91348 4.38859,-2.96724 7.06823,-2.96724 2.67978,0 5.18997,1.05376 7.06818,2.96714 0.33328,0.33949 0.87858,0.34448 1.21802,0.0113 0.33944,-0.33322 0.34448,-0.87853 0.0113,-1.21801 z"
       id="path760"
       style="stroke-width:0.0467031;stroke:none;stroke-opacity:1;fill:#ffffff" />
    <path
       d="m 462.27284,312.98299 -3.16477,-3.16477 0.82695,-0.82689 c 0.10159,-0.10159 0.15863,-0.23928 0.15863,-0.38297 0,-0.14361 -0.057,-0.2813 -0.15863,-0.38297 l -2.65964,-2.65956 c -0.21148,-0.21142 -0.55431,-0.21142 -0.76579,0 l -0.82689,0.82688 -3.16506,-3.16478 c -0.21156,-0.21141 -0.55439,-0.21141 -0.7658,0 l -2.65956,2.65957 c -0.21149,0.21156 -0.21149,0.55438 0,0.76587 l 3.16477,3.16477 -0.82695,0.82689 c -0.10159,0.10159 -0.15863,0.23928 -0.15863,0.38297 0,0.14368 0.057,0.2813 0.15863,0.38297 l 2.65978,2.65971 c 0.10571,0.1057 0.24434,0.15856 0.3829,0.15856 0.13856,0 0.27719,-0.0529 0.3829,-0.15856 l 0.82695,-0.82696 3.16471,3.16471 c 0.10578,0.1057 0.24434,0.15856 0.3829,0.15856 0.13855,0 0.27719,-0.0529 0.38289,-0.15856 l 2.65964,-2.65957 c 0.10159,-0.10159 0.15863,-0.23928 0.15863,-0.38297 8e-5,-0.14361 -0.057,-0.28131 -0.15856,-0.3829 z m -12.0318,-6.71252 1.8937,-1.8937 2.78202,2.78174 -1.23945,1.23945 -0.65439,0.65439 z m 4.23174,6.65144 -1.89391,-1.89384 0.82659,-0.82652 c 1.4e-4,-1.5e-4 2.2e-4,-2.2e-4 3.6e-4,-3.6e-4 l 0.89844,-0.89844 2.58815,-2.58808 1.89384,1.89377 -0.82645,0.82644 c -2.1e-4,2.2e-4 -3.6e-4,3.7e-4 -5e-4,5.1e-4 l -1.32978,1.32985 z m 4.75753,2.33775 -2.78181,-2.78173 1.89384,-1.89385 2.78181,2.78181 z"
       id="path587"
       style="stroke-width:0.0722041;stroke:none;stroke-opacity:1;fill:#ffffff" />
    <path
       d="m 452.95743,316.1635 c -1.10595,7e-5 -2.14569,-0.43062 -2.92773,-1.21267 -0.78204,-0.78204 -1.21274,-1.82185 -1.21274,-2.9278 0,-0.29914 -0.24246,-0.54153 -0.54153,-0.54153 -0.29914,0 -0.54153,0.24246 -0.54153,0.54153 0,1.39527 0.54341,2.707 1.52993,3.6936 0.98653,0.9866 2.29819,1.52993 3.69339,1.52993 7e-5,0 1.4e-4,0 2.8e-4,0 0.29907,0 0.54146,-0.24246 0.54146,-0.54153 8e-5,-0.29914 -0.24246,-0.54153 -0.54153,-0.54153 z"
       id="path589"
       style="stroke-width:0.0722041;stroke:none;stroke-opacity:1;fill:#ffffff" />
    <path
       d="m 452.74096,315.12217 c 0.29907,0 0.54154,-0.24238 0.54154,-0.54153 0,-0.29914 -0.24247,-0.54153 -0.54154,-0.54153 -0.48073,0 -0.93258,-0.18722 -1.27252,-0.52709 -0.33986,-0.33986 -0.52702,-0.79171 -0.52702,-1.27238 0,-0.29907 -0.24239,-0.54153 -0.54153,-0.54153 v 0 c -0.29907,0 -0.54153,0.24246 -0.54153,0.54153 -7e-5,0.76992 0.29979,1.49376 0.84428,2.03825 0.54442,0.54449 1.26834,0.84428 2.03832,0.84428 z"
       id="path591"
       style="stroke-width:0.0722041;stroke:none;stroke-opacity:1;fill:#ffffff" />
    <text
       xml:space="preserve"
       style="font-size:18.6667px;font-family:Consolas;-inkscape-font-specification:Consolas;text-align:center;text-anchor:middle;fill:#ffffff;stroke-width:0.5;stroke:none;stroke-opacity:1"
       x="508.18063"
       y="316.11438"
       id="text1371"><tspan
         sodipodi:role="line"
         id="tspan1369"
         x="508.18063"
         y="316.11438">A</tspan></text>
    <text
       xml:space="preserve"
       style="font-size:18.6667px;font-family:Consolas;-inkscape-font-specification:Consolas;text-align:center;text-anchor:middle;fill:#ffffff;stroke:none;stroke-width:0.5;stroke-opacity:1"
       x="534.79553"
       y="316.11438"
       id="text1375"><tspan
         sodipodi:role="line"
         id="tspan1373"
         x="534.79553"
         y="316.11438">B</tspan></text>
    <path
       style="fill:#ffffff;stroke-width:0.635239;stroke:none;stroke-opacity:1;fill-opacity:1"
       d="m 549.12794,455.74808 v 2.42915 c 2.2119,1.14216 3.72822,3.44744 3.72822,6.11036 0,3.79873 -3.07964,6.87964 -6.87837,6.87964 -3.79999,0 -6.8809,-3.08091 -6.8809,-6.87964 0,-2.44186 1.2781,-4.58325 3.19461,-5.80354 v -2.52507 c -3.19334,1.41594 -5.42557,4.60929 -5.42557,8.32925 0,5.03172 4.07823,9.11059 9.10932,9.11059 5.03363,0 9.1106,-4.07887 9.1106,-9.11059 -6.4e-4,-3.92387 -2.48506,-7.2557 -5.95791,-8.54015 z"
       id="path1447" />
    <path
       style="fill:#ffffff;stroke-width:0.635239;stroke:none;stroke-opacity:1;fill-opacity:1"
       d="m 545.79993,466.13767 c 1.00113,0 1.10277,-0.5914 1.10277,-1.31875 v -8.57318 c 0,-0.72926 -0.10164,-1.3213 -1.10277,-1.3213 -0.99733,0 -1.10024,0.59204 -1.10024,1.3213 v 8.57318 c -6.3e-4,0.72798 0.10291,1.31875 1.10024,1.31875 z"
       id="path1449" />
    <path
       d="m 454.20978,463.13669 -11.37753,-7.92061 c -0.60649,-0.44879 -1.85584,-0.22439 -1.9468,1.01888 v 15.84121 c 0.0667,1.46768 1.49801,1.38278 1.9468,1.01889 l 11.37753,-7.9206 c 0.40633,-0.24866 0.98248,-1.21296 0,-2.03777 z m -10.84384,6.56816 V 458.6063 l 7.96912,5.54927 z"
       id="path2416"
       style="stroke-width:0.0606478;stroke:none;stroke-opacity:1;fill:#ffffff;fill-opacity:1" />
    <text
       xml:space="preserve"
       style="font-size:18.6667px;font-family:Consolas;-inkscape-font-specification:Consolas;text-align:center;text-anchor:middle;fill:#000000;fill-opacity:1;stroke:none;stroke-width:0.5;stroke-opacity:1"
       x="416.09195"
       y="229.56798"
       id="text4062-4"><tspan
         sodipodi:role="line"
         id="tspan4060-1"
         x="416.09195"
         y="229.56798"
         style="font-style:normal;font-variant:normal;font-weight:normal;font-stretch:normal;font-family:Consolas;-inkscape-font-specification:Consolas;fill:#000000;fill-opacity:1;stroke:none;stroke-opacity:1">GNSS</tspan><tspan
         sodipodi:role="line"
         x="416.09195"
         y="252.90135"
         style="font-style:normal;font-variant:normal;font-weight:normal;font-stretch:normal;font-family:Consolas;-inkscape-font-specification:Consolas;fill:#000000;fill-opacity:1;stroke:none;stroke-opacity:1"
         id="tspan3159">Status</tspan></text>
    <text
       xml:space="preserve"
       style="font-size:18.6667px;font-family:Consolas;-inkscape-font-specification:Consolas;text-align:center;text-anchor:middle;fill:#000000;fill-opacity:1;stroke:none;stroke-width:0.5;stroke-opacity:1"
       x="424.03763"
       y="548.93799"
       id="text4062-4-6"><tspan
         sodipodi:role="line"
         id="tspan4060-1-1"
         x="424.03763"
         y="548.93799"
         style="font-style:normal;font-variant:normal;font-weight:normal;font-stretch:normal;font-family:Consolas;-inkscape-font-specification:Consolas;fill:#000000;fill-opacity:1;stroke:none;stroke-opacity:1">Record</tspan><tspan
         sodipodi:role="line"
         x="424.03763"
         y="572.27136"
         style="font-style:normal;font-variant:normal;font-weight:normal;font-stretch:normal;font-family:Consolas;-inkscape-font-specification:Consolas;fill:#000000;fill-opacity:1;stroke:none;stroke-opacity:1"
         id="tspan3004">Position</tspan></text>
    <text
       xml:space="preserve"
       style="font-size:18.6667px;font-family:Consolas;-inkscape-font-specification:Consolas;text-align:center;text-anchor:middle;fill:#000000;fill-opacity:1;stroke:none;stroke-width:0.5;stroke-opacity:1"
       x="555.0556"
       y="548.84796"
       id="text4062-4-6-8"><tspan
         sodipodi:role="line"
         x="555.0556"
         y="548.84796"
         style="font-style:normal;font-variant:normal;font-weight:normal;font-stretch:normal;font-family:Consolas;-inkscape-font-specification:Consolas;fill:#000000;fill-opacity:1;stroke:none;stroke-opacity:1"
         id="tspan3004-7">Power/</tspan><tspan
         sodipodi:role="line"
         x="555.0556"
         y="572.18134"
         style="font-style:normal;font-variant:normal;font-weight:normal;font-stretch:normal;font-family:Consolas;-inkscape-font-specification:Consolas;fill:#000000;fill-opacity:1;stroke:none;stroke-opacity:1"
         id="tspan3040">Next Page</tspan></text>
    <text
       xml:space="preserve"
       style="font-size:18.6667px;line-height:1.1;font-family:Consolas;-inkscape-font-specification:Consolas;text-align:center;text-anchor:middle;fill:#000000;fill-opacity:1;stroke:none;stroke-width:0.5;stroke-opacity:1"
       x="533.67169"
       y="231.55594"
       id="text4062-4-1"><tspan
         sodipodi:role="line"
         x="533.67169"
         y="231.55594"
         style="font-style:normal;font-variant:normal;font-weight:normal;font-stretch:normal;font-family:Consolas;-inkscape-font-specification:Consolas;fill:#000000;fill-opacity:1;stroke:none;stroke-opacity:1"
         id="tspan2362">Comm</tspan><tspan
         sodipodi:role="line"
         x="533.67169"
         y="252.08931"
         style="font-style:normal;font-variant:normal;font-weight:normal;font-stretch:normal;font-family:Consolas;-inkscape-font-specification:Consolas;fill:#000000;fill-opacity:1;stroke:none;stroke-opacity:1"
         id="tspan3163">Status</tspan></text>
    <path
       style="fill:#000000;fill-opacity:1;stroke:#fa3a3a;stroke-width:2.57722;stroke-dasharray:none;stroke-opacity:1;marker-end:url(#marker5645-7)"
       d="m 426.28759,256.83562 21.58766,35.32577"
       id="path1626-2"
       sodipodi:nodetypes="cc" />
    <path
       style="fill:#000000;fill-opacity:1;stroke:#fa3a3a;stroke-width:2.49145;stroke-dasharray:none;stroke-opacity:1;marker-end:url(#marker5645-7-6)"
       d="m 511.6965,257.67797 -21.27095,33.50511"
       id="path1626-2-6"
       sodipodi:nodetypes="cc" />
    <path
       style="fill:#000000;fill-opacity:1;stroke:#fa3a3a;stroke-width:3.21638;stroke-dasharray:none;stroke-opacity:1;marker-end:url(#marker5645-7-6-7)"
       d="m 543.64411,532.17639 1.08195,-35.99996"
       id="path1626-2-6-0"
       sodipodi:nodetypes="cc" />
    <path
       style="fill:#000000;fill-opacity:1;stroke:#fa3a3a;stroke-width:3.27859;stroke-dasharray:none;stroke-opacity:1;marker-end:url(#marker5645-7-6-7-4)"
       d="m 443.71106,532.44462 1.04006,-38.91289"
       id="path2774-4"
       sodipodi:nodetypes="cc" />
  </g>
</svg>
